<svg xmlns="http://www.w3.org/2000/svg" width="512" height="512" viewBox="0 0 512 512" role="img" aria-label="Last Light retro arcade artwork">

  <defs>
    <linearGradient id="bg" x1="0" y1="0" x2="1" y2="1"><stop offset="0" stop-color="#05050d"/><stop offset="0.52" stop-color="#14072e"/><stop offset="1" stop-color="#07030e"/></linearGradient>
    <radialGradient id="starGlow" cx="50%" cy="50%" r="60%"><stop offset="0" stop-color="#fff9ce" stop-opacity="1"/><stop offset="0.35" stop-color="#ffc86b" stop-opacity="0.55"/><stop offset="1" stop-color="#ff7f75" stop-opacity="0"/></radialGradient>
    <linearGradient id="starFill" x1="0" y1="0" x2="1" y2="1"><stop offset="0" stop-color="#fff8cf"/><stop offset="0.46" stop-color="#ffe27a"/><stop offset="1" stop-color="#ff9d3d"/></linearGradient>
    <linearGradient id="rock" x1="0" y1="0" x2="1" y2="1"><stop offset="0" stop-color="#c27bff"/><stop offset="0.45" stop-color="#5b377d"/><stop offset="1" stop-color="#1b1231"/></linearGradient>
    <linearGradient id="fire" x1="0" y1="0" x2="1" y2="0"><stop offset="0" stop-color="#ffe58d" stop-opacity=".95"/><stop offset=".35" stop-color="#ff8a3d" stop-opacity=".82"/><stop offset="1" stop-color="#7c2cff" stop-opacity="0"/></linearGradient>
    <filter id="glow" x="-80%" y="-80%" width="260%" height="260%"><feGaussianBlur stdDeviation="8" result="b"/><feMerge><feMergeNode in="b"/><feMergeNode in="SourceGraphic"/></feMerge></filter>
    <filter id="soft" x="-40%" y="-40%" width="180%" height="180%"><feGaussianBlur stdDeviation="2.2"/></filter>
    <pattern id="scan" patternUnits="userSpaceOnUse" width="4" height="4"><rect width="4" height="1" fill="#ffffff" opacity="0.035"/></pattern>
  </defs>
<rect width="100%" height="100%" fill="url(#bg)"/>
<rect width="100%" height="100%" fill="url(#scan)"/>
<rect x="328.3" y="151.3" width="3" height="3" fill="#ffc86b" opacity="0.51"/>
<rect x="21.6" y="504.3" width="2.5" height="2.5" fill="#c35cff" opacity="0.57"/>
<rect x="107.5" y="209.8" width="2.5" height="2.5" fill="#ffc86b" opacity="0.87"/>
<rect x="262.6" y="390.2" width="1" height="1" fill="#ffc86b" opacity="0.84"/>
<rect x="152.1" y="469.2" width="2.5" height="2.5" fill="#bffff4" opacity="0.53"/>
<rect x="473.8" y="436.1" width="1" height="1" fill="#fff0b7" opacity="0.49"/>
<rect x="135.0" y="110.0" width="2.5" height="2.5" fill="#ffc86b" opacity="0.77"/>
<rect x="25.9" y="353.1" width="3" height="3" fill="#c35cff" opacity="0.46"/>
<rect x="72.5" y="49.0" width="3" height="3" fill="#ffc86b" opacity="0.80"/>
<rect x="448.7" y="407.5" width="2" height="2" fill="#ffc86b" opacity="0.68"/>
<rect x="211.1" y="203.8" width="1" height="1" fill="#c35cff" opacity="0.65"/>
<rect x="455.8" y="474.0" width="2" height="2" fill="#bffff4" opacity="0.58"/>
<rect x="400.6" y="215.4" width="1.5" height="1.5" fill="#fff0b7" opacity="0.49"/>
<rect x="170.3" y="202.5" width="1" height="1" fill="#fff0b7" opacity="0.60"/>
<rect x="225.8" y="142.7" width="3" height="3" fill="#c35cff" opacity="0.65"/>
<rect x="369.1" y="432.5" width="1" height="1" fill="#c35cff" opacity="0.59"/>
<rect x="168.9" y="327.1" width="1.5" height="1.5" fill="#fff0b7" opacity="0.60"/>
<rect x="434.0" y="474.7" width="3" height="3" fill="#ffc86b" opacity="0.66"/>
<rect x="331.7" y="39.7" width="3" height="3" fill="#fff0b7" opacity="0.91"/>
<rect x="390.4" y="326.6" width="1" height="1" fill="#c35cff" opacity="0.57"/>
<rect x="121.9" y="20.5" width="2" height="2" fill="#bffff4" opacity="0.44"/>
<rect x="491.5" y="228.8" width="2.5" height="2.5" fill="#bffff4" opacity="0.66"/>
<rect x="382.1" y="88.2" width="1.5" height="1.5" fill="#c35cff" opacity="0.48"/>
<rect x="50.7" y="79.6" width="2.5" height="2.5" fill="#bffff4" opacity="0.77"/>
<rect x="88.7" y="316.6" width="1" height="1" fill="#c35cff" opacity="0.63"/>
<rect x="92.4" y="511.0" width="1.5" height="1.5" fill="#bffff4" opacity="0.43"/>
<rect x="43.3" y="244.0" width="2" height="2" fill="#fff0b7" opacity="0.65"/>
<rect x="195.8" y="465.2" width="2" height="2" fill="#ffc86b" opacity="0.68"/>
<rect x="198.1" y="403.9" width="1.5" height="1.5" fill="#ffc86b" opacity="0.45"/>
<rect x="255.6" y="45.7" width="3" height="3" fill="#ffc86b" opacity="0.91"/>
<rect x="100.5" y="37.7" width="1" height="1" fill="#c35cff" opacity="0.65"/>
<rect x="434.7" y="424.3" width="3" height="3" fill="#ffc86b" opacity="0.73"/>
<rect x="487.6" y="421.5" width="3" height="3" fill="#ffc86b" opacity="0.68"/>
<rect x="108.3" y="188.3" width="2" height="2" fill="#c35cff" opacity="0.68"/>
<rect x="125.2" y="242.4" width="1.5" height="1.5" fill="#bffff4" opacity="0.54"/>
<rect x="7.6" y="20.5" width="2" height="2" fill="#fff0b7" opacity="0.49"/>
<rect x="45.4" y="50.3" width="2.5" height="2.5" fill="#ffc86b" opacity="0.76"/>
<rect x="199.2" y="139.1" width="2" height="2" fill="#bffff4" opacity="0.54"/>
<rect x="251.4" y="497.4" width="3" height="3" fill="#ffc86b" opacity="0.58"/>
<rect x="6.2" y="121.1" width="3" height="3" fill="#bffff4" opacity="0.56"/>
<rect x="24" y="24" width="464" height="464" rx="92" fill="#0b0620" stroke="#43236c" stroke-width="5"/><ellipse cx="256.0" cy="256.0" rx="178" ry="70" fill="none" stroke="#ffc86b" stroke-width="3" opacity="0.5" transform="rotate(-24 256.0 256.0)" filter="url(#soft)"/><ellipse cx="256.0" cy="256.0" rx="160" ry="58" fill="none" stroke="#c35cff" stroke-width="3" opacity="0.36" transform="rotate(26 256.0 256.0)" filter="url(#soft)"/><path d="M -5.5 33.5 C 56.3 41.8, 111.2 101.0, 118.0 118.0" stroke="url(#fire)" stroke-width="42.5" stroke-linecap="round" fill="none" opacity=".85"/><polygon points="138.2,131.8 125.8,146.0 104.1,148.7 94.9,129.1 88.7,110.5 97.7,89.6 120.0,91.3 140.0,95.5 153.9,114.5" fill="url(#rock)" stroke="#ffb45c" stroke-width="3.1" opacity=".96"/><path d="M 102.7 112.9 L 124.8 100.3 L 137.0 122.1" stroke="#d9a0ff" stroke-width="1.7" opacity=".38" fill="none"/><path d="M 479.1 51.7 C 438.6 63.8, 393.0 113.5, 398.0 126.0" stroke="url(#fire)" stroke-width="31.2" stroke-linecap="round" fill="none" opacity=".85"/><polygon points="384.7,138.2 376.6,126.9 378.3,110.9 393.9,107.6 408.3,106.3 421.7,116.2 416.8,131.9 410.4,145.5 394.5,152.3" fill="url(#rock)" stroke="#ffb45c" stroke-width="2.2" opacity=".96"/><path d="M 386.8 122.2 L 403.0 113.0 L 412.0 129.0" stroke="#d9a0ff" stroke-width="1.2" opacity=".38" fill="none"/><path d="M 558.7 483.9 C 480.4 393.0, 393.6 365.0, 402.0 386.0" stroke="url(#fire)" stroke-width="52.5" stroke-linecap="round" fill="none" opacity=".85"/><polygon points="376.4,370.0 390.9,351.8 417.6,347.4 430.0,371.1 438.6,393.8 428.5,420.0 400.8,419.1 376.0,414.8 357.9,392.2" fill="url(#rock)" stroke="#ffb45c" stroke-width="3.8" opacity=".96"/><path d="M 383.1 379.7 L 410.4 364.2 L 425.5 391.0" stroke="#d9a0ff" stroke-width="2.1" opacity=".38" fill="none"/>
    <circle cx="256.0" cy="264.0" r="224.8" fill="url(#starGlow)" filter="url(#soft)"/>
    <polygon points="256.0,119.0 294.4,211.2 393.9,219.2 318.1,284.2 341.2,381.3 256.0,329.2 170.8,381.3 193.9,284.2 118.1,219.2 217.6,211.2" fill="url(#starFill)" stroke="#fff6bf" stroke-width="8.0" filter="url(#glow)"/>
    <polygon points="256.0,159.6 285.0,224.1 355.3,231.7 302.9,279.2 317.4,348.5 256.0,313.3 194.6,348.5 209.1,279.2 156.7,231.7 227.0,224.1" fill="none" stroke="#ffb45c" stroke-width="5.1" opacity=".72"/>
    <text x="256.0" y="278.5" text-anchor="middle" font-family="monospace" font-size="40.6" font-weight="900" fill="#3a1811">∞</text>
</svg>