<svg xmlns="http://www.w3.org/2000/svg" viewBox="0 0 512 512" width="512" height="512">
  <defs>
    <radialGradient id="void" cx="50%" cy="44%" r="75%">
      <stop offset="0%" stop-color="#231a4d"/>
      <stop offset="42%" stop-color="#140f30"/>
      <stop offset="100%" stop-color="#05050d"/>
    </radialGradient>
    <radialGradient id="halo" cx="50%" cy="50%" r="50%">
      <stop offset="0%" stop-color="#ffe9a8" stop-opacity="0.95"/>
      <stop offset="34%" stop-color="#ffc86b" stop-opacity="0.42"/>
      <stop offset="70%" stop-color="#ff9d5c" stop-opacity="0.12"/>
      <stop offset="100%" stop-color="#ff9d5c" stop-opacity="0"/>
    </radialGradient>
    <linearGradient id="facetLight" x1="0" y1="0" x2="0" y2="1">
      <stop offset="0%" stop-color="#fff8dc"/>
      <stop offset="55%" stop-color="#ffe29a"/>
      <stop offset="100%" stop-color="#ffc86b"/>
    </linearGradient>
    <linearGradient id="facetDark" x1="0" y1="0" x2="0" y2="1">
      <stop offset="0%" stop-color="#ffd98c"/>
      <stop offset="55%" stop-color="#f2a94f"/>
      <stop offset="100%" stop-color="#c97e2e"/>
    </linearGradient>
    <linearGradient id="ring" x1="0" y1="0" x2="1" y2="0">
      <stop offset="0%" stop-color="#bffff4" stop-opacity="0"/>
      <stop offset="30%" stop-color="#bffff4" stop-opacity="0.55"/>
      <stop offset="70%" stop-color="#8fb4ff" stop-opacity="0.55"/>
      <stop offset="100%" stop-color="#8fb4ff" stop-opacity="0"/>
    </linearGradient>
    <filter id="soft" x="-60%" y="-60%" width="220%" height="220%">
      <feGaussianBlur stdDeviation="7"/>
    </filter>
  </defs>

  <rect width="512" height="512" fill="url(#void)"/>
    <circle cx="169" cy="84" r="1.6" fill="#fff0b7" opacity="0.22"/>
    <circle cx="39" cy="260" r="0.8" fill="#fff0b7" opacity="0.43"/>
    <circle cx="44" cy="55" r="1.3" fill="#fff0b7" opacity="0.65"/>
    <circle cx="71" cy="120" r="1.6" fill="#fff0b7" opacity="0.72"/>
    <circle cx="490" cy="33" r="1.9" fill="#fff0b7" opacity="0.35"/>
    <circle cx="81" cy="68" r="1.1" fill="#fff0b7" opacity="0.65"/>
    <circle cx="279" cy="41" r="0.8" fill="#fff0b7" opacity="0.30"/>
    <circle cx="492" cy="68" r="1.3" fill="#fff0b7" opacity="0.61"/>
    <circle cx="29" cy="339" r="1.8" fill="#fff0b7" opacity="0.51"/>
    <circle cx="441" cy="164" r="1.7" fill="#fff0b7" opacity="0.52"/>
    <circle cx="423" cy="475" r="1.4" fill="#fff0b7" opacity="0.56"/>
    <circle cx="40" cy="355" r="1.6" fill="#fff0b7" opacity="0.75"/>
    <circle cx="414" cy="150" r="1.2" fill="#fff0b7" opacity="0.56"/>
    <circle cx="21" cy="237" r="0.9" fill="#fff0b7" opacity="0.25"/>
    <circle cx="39" cy="388" r="0.9" fill="#fff0b7" opacity="0.32"/>
    <circle cx="50" cy="231" r="1.5" fill="#fff0b7" opacity="0.68"/>
    <circle cx="413" cy="435" r="1.1" fill="#fff0b7" opacity="0.42"/>
    <circle cx="187" cy="445" r="2.0" fill="#fff0b7" opacity="0.27"/>
    <circle cx="97" cy="124" r="1.0" fill="#fff0b7" opacity="0.46"/>
    <circle cx="12" cy="216" r="1.2" fill="#fff0b7" opacity="0.50"/>
    <circle cx="479" cy="350" r="1.4" fill="#fff0b7" opacity="0.53"/>
    <circle cx="343" cy="37" r="2.0" fill="#fff0b7" opacity="0.62"/>
    <circle cx="440" cy="403" r="1.2" fill="#fff0b7" opacity="0.41"/>
    <circle cx="61" cy="322" r="0.8" fill="#fff0b7" opacity="0.22"/>
    <circle cx="113" cy="90" r="1.2" fill="#fff0b7" opacity="0.21"/>
    <circle cx="10" cy="84" r="0.8" fill="#fff0b7" opacity="0.39"/>
    <circle cx="23" cy="440" r="1.6" fill="#fff0b7" opacity="0.26"/>
    <circle cx="189" cy="70" r="1.9" fill="#fff0b7" opacity="0.75"/>
    <circle cx="52" cy="60" r="1.2" fill="#fff0b7" opacity="0.33"/>

  <!-- orbit ring behind the star -->
  <g transform="rotate(-16 256 262)">
    <ellipse cx="256" cy="262" rx="212" ry="84" fill="none" stroke="url(#ring)" stroke-width="3" stroke-dasharray="1 14" stroke-linecap="round" opacity="0.9"/>
  </g>
  <!-- asteroid on the ring, upper right -->
  <g transform="translate(430 176) rotate(24)">
    <polygon points="-14,2 -7,-11 6,-13 15,-4 12,8 -1,13 -11,10" fill="#6f7590"/>
    <polygon points="-14,2 -7,-11 6,-13 2,-2 -4,6" fill="#8d93ad"/>
    <circle cx="4" cy="3" r="2.4" fill="#4c5068"/>
  </g>

  <!-- layered glow -->
  <circle cx="256" cy="262" r="188" fill="url(#halo)" opacity="0.5"/>
  <circle cx="256" cy="262" r="132" fill="url(#halo)"/>

  <!-- star silhouette (soft rim) -->
  <polygon points="256.0,114.0 291.6,213.1 396.8,216.3 313.5,280.7 343.0,381.7 256.0,322.5 169.0,381.7 198.5,280.7 115.2,216.3 220.4,213.1" fill="#8a5a20" filter="url(#soft)" opacity="0.85"/>

  <!-- faceted star -->
  <g>
    <polygon points="256.0,262.0 220.4,213.1 256.0,114.0" fill="url(#facetLight)"/>
    <polygon points="256.0,262.0 291.6,213.1 396.8,216.3" fill="url(#facetLight)"/>
    <polygon points="256.0,262.0 313.5,280.7 343.0,381.7" fill="url(#facetLight)"/>
    <polygon points="256.0,262.0 256.0,322.5 169.0,381.7" fill="url(#facetLight)"/>
    <polygon points="256.0,262.0 198.5,280.7 115.2,216.3" fill="url(#facetLight)"/>
    <polygon points="256.0,262.0 256.0,114.0 291.6,213.1" fill="url(#facetDark)"/>
    <polygon points="256.0,262.0 396.8,216.3 313.5,280.7" fill="url(#facetDark)"/>
    <polygon points="256.0,262.0 343.0,381.7 256.0,322.5" fill="url(#facetDark)"/>
    <polygon points="256.0,262.0 169.0,381.7 198.5,280.7" fill="url(#facetDark)"/>
    <polygon points="256.0,262.0 115.2,216.3 220.4,213.1" fill="url(#facetDark)"/>
    <polygon points="256.0,114.0 291.6,213.1 396.8,216.3 313.5,280.7 343.0,381.7 256.0,322.5 169.0,381.7 198.5,280.7 115.2,216.3 220.4,213.1" fill="none" stroke="#fff6d8" stroke-width="3" stroke-linejoin="round" opacity="0.9"/>
  </g>

  <!-- core highlight -->
  <circle cx="256" cy="252" r="24" fill="#fff8dc" opacity="0.55" filter="url(#soft)"/>

  <!-- sparkles -->
  <g fill="#fff0b7">
    <path d="M118 128 l4.5 12 12 4.5 -12 4.5 -4.5 12 -4.5 -12 -12 -4.5 12 -4.5 z" opacity="0.9"/>
    <path d="M400 352 l3.5 9 9 3.5 -9 3.5 -3.5 9 -3.5 -9 -9 -3.5 9 -3.5 z" opacity="0.75"/>
    <path d="M152 402 l2.5 7 7 2.5 -7 2.5 -2.5 7 -2.5 -7 -7 -2.5 7 -2.5 z" opacity="0.6"/>
  </g>
</svg>